<?xml version="1.0" encoding="UTF-8" standalone="no"?>
<!DOCTYPE svg PUBLIC "-//W3C//DTD SVG 1.1//EN" "http://www.w3.org/Graphics/SVG/1.1/DTD/svg11.dtd">
<svg width="100%" height="100%" viewBox="0 0 16 16" version="1.1" xmlns="http://www.w3.org/2000/svg" xmlns:xlink="http://www.w3.org/1999/xlink" xml:space="preserve" xmlns:serif="http://www.serif.com/" style="fill-rule:evenodd;clip-rule:evenodd;stroke-linejoin:round;stroke-miterlimit:2;">
    <path d="M13,12L15,10L15,16L9,16L10,15L13,15L13,12ZM3,12L1,10L1,16L7,16L6,15L3,15L3,12ZM3,3L3,5.667L1,7L1,3L3,3ZM13,3L13,5.667L15,7L15,3L13,3Z" style="fill:rgb(177,253,88);"/>
    <g transform="matrix(1.12054,0,0,1.24687,-0.943835,-1.58076)">
        <rect x="4.412" y="1.268" width="7.139" height="11.228" style="fill:rgb(177,253,88);"/>
    </g>
</svg>
